<?xml version="1.0" encoding="utf-8"?>
<!-- Generator: Adobe Illustrator 16.0.0, SVG Export Plug-In . SVG Version: 6.00 Build 0)  -->
<!DOCTYPE svg PUBLIC "-//W3C//DTD SVG 1.1//EN" "http://www.w3.org/Graphics/SVG/1.1/DTD/svg11.dtd">
<svg version="1.1" id="Layer_1" xmlns="http://www.w3.org/2000/svg" xmlns:xlink="http://www.w3.org/1999/xlink" x="0px" y="0px"
	 width="792px" height="612px" viewBox="0 0 792 612" enable-background="new 0 0 792 612" xml:space="preserve">
<g>
	<path fill="none" stroke="#EDC92F" stroke-width="2" stroke-miterlimit="10" d="M337.501,336.5c0,0,4.333-7.834,9.833-7.834
		s7,8,11.833,8s4.501-7.332,11.167-7.332S378.167,336,383.501,336s6-7.816,13.333-8c6.667-0.166,8,7,12.833,7
		s8.667-7.166,14.167-7.166c6.333,0,7.501,6.832,12.167,6.832c6.666,0,5.334-7,11.5-7c6.5,0,6.666,6.5,9.166,6.668"/>
	<path fill="none" stroke="#EDC92F" stroke-width="2" stroke-miterlimit="10" d="M337.501,350.5c0,0,4.333-7.834,9.833-7.834
		s7,8,11.833,8s4.501-7.332,11.167-7.332S378.167,350,383.501,350s6-7.816,13.333-8c6.667-0.166,8,7,12.833,7
		s8.667-7.166,14.167-7.166c6.333,0,7.501,6.832,12.167,6.832c6.666,0,5.334-7,11.5-7c6.5,0,6.666,6.5,9.166,6.668"/>
	<path fill="#FFFFFF" stroke="#EDC92F" stroke-width="2" stroke-miterlimit="10" d="M392.501,269.833
		c0-5.062,4.104-8.167,9.167-8.167s8.166,4.104,8.166,9.167l0.435,34.992c5.316,3.045,8.898,8.775,8.898,15.34
		c0,9.758-7.909,17.667-17.667,17.667c-9.757,0-17.666-7.909-17.666-17.667c0-6.571,3.589-12.305,8.914-15.349l-0.217-36.036"/>
	<path fill="none" stroke="#EDC92F" stroke-width="2" stroke-miterlimit="10" d="M396.629,307.133
		c0.007-3.299,1.606-5.285,4.906-5.277c3.299,0.007,4.239,2.718,4.23,6.018l0.209,3.378c3.461,1.991,6.867,5.7,6.857,9.979
		c-0.014,6.36-5.18,11.504-11.54,11.49c-6.36-0.014-11.503-5.18-11.489-11.54c0.009-4.282,3.435-8.046,6.91-10.022l-0.063-4.059"/>
	<line fill="none" stroke="#EDC92F" stroke-width="2" stroke-miterlimit="10" x1="393" y1="277" x2="399" y2="277"/>
	<line fill="none" stroke="#EDC92F" stroke-width="2" stroke-miterlimit="10" x1="393" y1="283" x2="399" y2="283"/>
	<line fill="none" stroke="#EDC92F" stroke-width="2" stroke-miterlimit="10" x1="393" y1="288" x2="399" y2="288"/>
	<line fill="none" stroke="#EDC92F" stroke-width="2" stroke-miterlimit="10" x1="393" y1="293" x2="399" y2="293"/>
	<line fill="none" stroke="#EDC92F" stroke-width="2" stroke-miterlimit="10" x1="393" y1="298" x2="399" y2="298"/>
</g>
</svg>
